<mxfile host="Electron" agent="Mozilla/5.0 (Macintosh; Intel Mac OS X 10_15_7) AppleWebKit/537.36 (KHTML, like Gecko) draw.io/26.0.9 Chrome/128.0.6613.186 Electron/32.2.5 Safari/537.36" version="26.0.9">
  <diagram name="Page-1" id="C1ddzQrg_kv2vDsSqvQk">
    <mxGraphModel dx="954" dy="616" grid="0" gridSize="10" guides="1" tooltips="1" connect="1" arrows="1" fold="1" page="1" pageScale="1" pageWidth="1169" pageHeight="827" math="0" shadow="0">
      <root>
        <mxCell id="0" />
        <mxCell id="1" parent="0" />
        <mxCell id="Jz9IZ5eOZZee__kYrSO4-7" style="edgeStyle=orthogonalEdgeStyle;rounded=0;orthogonalLoop=1;jettySize=auto;html=1;curved=0;" edge="1" parent="1" source="Jz9IZ5eOZZee__kYrSO4-4" target="Jz9IZ5eOZZee__kYrSO4-5">
          <mxGeometry relative="1" as="geometry">
            <Array as="points">
              <mxPoint x="280" y="222" />
              <mxPoint x="280" y="222" />
            </Array>
          </mxGeometry>
        </mxCell>
        <mxCell id="Jz9IZ5eOZZee__kYrSO4-11" value="GET /xyz with X-Range" style="edgeLabel;html=1;align=center;verticalAlign=middle;resizable=0;points=[];" vertex="1" connectable="0" parent="Jz9IZ5eOZZee__kYrSO4-7">
          <mxGeometry x="-0.1013" relative="1" as="geometry">
            <mxPoint x="1" as="offset" />
          </mxGeometry>
        </mxCell>
        <mxCell id="Jz9IZ5eOZZee__kYrSO4-4" value="Browser" style="shape=umlLifeline;perimeter=lifelinePerimeter;whiteSpace=wrap;html=1;container=1;dropTarget=0;collapsible=0;recursiveResize=0;outlineConnect=0;portConstraint=eastwest;newEdgeStyle={&quot;curved&quot;:0,&quot;rounded&quot;:0};" vertex="1" parent="1">
          <mxGeometry x="113" y="110" width="100" height="300" as="geometry" />
        </mxCell>
        <mxCell id="Jz9IZ5eOZZee__kYrSO4-5" value="Openrestry&lt;div&gt;(Proxy)&lt;/div&gt;" style="shape=umlLifeline;perimeter=lifelinePerimeter;whiteSpace=wrap;html=1;container=1;dropTarget=0;collapsible=0;recursiveResize=0;outlineConnect=0;portConstraint=eastwest;newEdgeStyle={&quot;curved&quot;:0,&quot;rounded&quot;:0};" vertex="1" parent="1">
          <mxGeometry x="350" y="110" width="100" height="300" as="geometry" />
        </mxCell>
        <mxCell id="Jz9IZ5eOZZee__kYrSO4-18" style="edgeStyle=orthogonalEdgeStyle;rounded=0;orthogonalLoop=1;jettySize=auto;html=1;curved=0;" edge="1" parent="1">
          <mxGeometry relative="1" as="geometry">
            <mxPoint x="635.5" y="294" as="sourcePoint" />
            <mxPoint x="398.5" y="294" as="targetPoint" />
          </mxGeometry>
        </mxCell>
        <mxCell id="Jz9IZ5eOZZee__kYrSO4-19" value="Response Partial Content with 206" style="edgeLabel;html=1;align=center;verticalAlign=middle;resizable=0;points=[];" vertex="1" connectable="0" parent="Jz9IZ5eOZZee__kYrSO4-18">
          <mxGeometry x="-0.1772" y="-1" relative="1" as="geometry">
            <mxPoint x="-18" as="offset" />
          </mxGeometry>
        </mxCell>
        <mxCell id="Jz9IZ5eOZZee__kYrSO4-6" value="3rd System" style="shape=umlLifeline;perimeter=lifelinePerimeter;whiteSpace=wrap;html=1;container=1;dropTarget=0;collapsible=0;recursiveResize=0;outlineConnect=0;portConstraint=eastwest;newEdgeStyle={&quot;curved&quot;:0,&quot;rounded&quot;:0};" vertex="1" parent="1">
          <mxGeometry x="587" y="110" width="100" height="300" as="geometry" />
        </mxCell>
        <mxCell id="Jz9IZ5eOZZee__kYrSO4-9" style="edgeStyle=orthogonalEdgeStyle;rounded=0;orthogonalLoop=1;jettySize=auto;html=1;curved=0;" edge="1" parent="1">
          <mxGeometry relative="1" as="geometry">
            <mxPoint x="163" y="183" as="sourcePoint" />
            <mxPoint x="163" y="203" as="targetPoint" />
            <Array as="points">
              <mxPoint x="163" y="181" />
              <mxPoint x="207" y="181" />
              <mxPoint x="207" y="203" />
            </Array>
          </mxGeometry>
        </mxCell>
        <mxCell id="Jz9IZ5eOZZee__kYrSO4-10" value="Replace HTTP Header Range -&amp;gt; X-Range" style="edgeLabel;html=1;align=center;verticalAlign=middle;resizable=0;points=[];" vertex="1" connectable="0" parent="Jz9IZ5eOZZee__kYrSO4-9">
          <mxGeometry x="-0.5714" y="3" relative="1" as="geometry">
            <mxPoint x="44" y="15" as="offset" />
          </mxGeometry>
        </mxCell>
        <mxCell id="Jz9IZ5eOZZee__kYrSO4-12" style="edgeStyle=orthogonalEdgeStyle;rounded=0;orthogonalLoop=1;jettySize=auto;html=1;curved=0;" edge="1" parent="1">
          <mxGeometry relative="1" as="geometry">
            <mxPoint x="402" y="224" as="sourcePoint" />
            <mxPoint x="402" y="244" as="targetPoint" />
            <Array as="points">
              <mxPoint x="402" y="222" />
              <mxPoint x="446" y="222" />
              <mxPoint x="446" y="244" />
            </Array>
          </mxGeometry>
        </mxCell>
        <mxCell id="Jz9IZ5eOZZee__kYrSO4-13" value="Replace HTTP Header X-Range -&amp;gt; Range" style="edgeLabel;html=1;align=center;verticalAlign=middle;resizable=0;points=[];" vertex="1" connectable="0" parent="Jz9IZ5eOZZee__kYrSO4-12">
          <mxGeometry x="-0.5714" y="3" relative="1" as="geometry">
            <mxPoint x="44" y="15" as="offset" />
          </mxGeometry>
        </mxCell>
        <mxCell id="Jz9IZ5eOZZee__kYrSO4-14" style="edgeStyle=orthogonalEdgeStyle;rounded=0;orthogonalLoop=1;jettySize=auto;html=1;curved=0;" edge="1" parent="1">
          <mxGeometry relative="1" as="geometry">
            <mxPoint x="401" y="264" as="sourcePoint" />
            <mxPoint x="638" y="264" as="targetPoint" />
            <Array as="points">
              <mxPoint x="518" y="264" />
              <mxPoint x="518" y="264" />
            </Array>
          </mxGeometry>
        </mxCell>
        <mxCell id="Jz9IZ5eOZZee__kYrSO4-15" value="Proxy GET /xyz with Range" style="edgeLabel;html=1;align=center;verticalAlign=middle;resizable=0;points=[];" vertex="1" connectable="0" parent="Jz9IZ5eOZZee__kYrSO4-14">
          <mxGeometry x="-0.1013" relative="1" as="geometry">
            <mxPoint x="1" as="offset" />
          </mxGeometry>
        </mxCell>
        <mxCell id="Jz9IZ5eOZZee__kYrSO4-21" style="edgeStyle=orthogonalEdgeStyle;rounded=0;orthogonalLoop=1;jettySize=auto;html=1;curved=0;" edge="1" parent="1">
          <mxGeometry relative="1" as="geometry">
            <mxPoint x="400" y="324" as="sourcePoint" />
            <mxPoint x="163" y="324" as="targetPoint" />
          </mxGeometry>
        </mxCell>
        <mxCell id="Jz9IZ5eOZZee__kYrSO4-22" value="Return the content with gzip encoding&lt;div&gt;Rewrite http status code with 200 (from 206)&lt;/div&gt;" style="edgeLabel;html=1;align=center;verticalAlign=middle;resizable=0;points=[];" vertex="1" connectable="0" parent="Jz9IZ5eOZZee__kYrSO4-21">
          <mxGeometry x="-0.1772" y="-1" relative="1" as="geometry">
            <mxPoint x="-18" as="offset" />
          </mxGeometry>
        </mxCell>
        <mxCell id="Jz9IZ5eOZZee__kYrSO4-24" value="Server Side" style="text;html=1;align=center;verticalAlign=middle;whiteSpace=wrap;rounded=0;" vertex="1" parent="1">
          <mxGeometry x="460" y="65" width="113" height="30" as="geometry" />
        </mxCell>
        <mxCell id="Jz9IZ5eOZZee__kYrSO4-25" value="Client" style="text;html=1;align=center;verticalAlign=middle;whiteSpace=wrap;rounded=0;" vertex="1" parent="1">
          <mxGeometry x="113" y="65" width="100" height="30" as="geometry" />
        </mxCell>
      </root>
    </mxGraphModel>
  </diagram>
</mxfile>
